%TF.GenerationSoftware,KiCad,Pcbnew,(5.99.0-459-gf0c386f5d-dirty)*%
%TF.CreationDate,2019-12-04T11:21:06+01:00*%
%TF.ProjectId,dvk-mx8m-bsb,64766b2d-6d78-4386-9d2d-6273622e6b69,v1.0.0*%
%TF.SameCoordinates,Original*%
%TF.FileFunction,Plated,1,6,PTH,Mixed*%
%TF.FilePolarity,Positive*%
%FSLAX46Y46*%
G04 Gerber Fmt 4.6, Leading zero omitted, Abs format (unit mm)*
G04 Created by KiCad (PCBNEW (5.99.0-459-gf0c386f5d-dirty)) date 2019-12-04 11:21:06*
%MOMM*%
%LPD*%
G04 APERTURE LIST*
%TA.AperFunction,ViaDrill*%
%ADD10C,0.203200*%
%TD*%
%TA.AperFunction,ViaDrill*%
%ADD11C,0.254000*%
%TD*%
%TA.AperFunction,ComponentDrill*%
%ADD12C,0.254000*%
%TD*%
%TA.AperFunction,ComponentDrill*%
%ADD13C,0.300000*%
%TD*%
%TA.AperFunction,ComponentDrill*%
%ADD14C,0.500000*%
%TD*%
G04 aperture for slot hole*
%TA.AperFunction,ComponentDrill*%
%ADD15C,0.500000*%
%TD*%
G04 aperture for slot hole*
%TA.AperFunction,ComponentDrill*%
%ADD16C,0.650000*%
%TD*%
%TA.AperFunction,ComponentDrill*%
%ADD17C,0.800000*%
%TD*%
%TA.AperFunction,ComponentDrill*%
%ADD18C,0.850000*%
%TD*%
%TA.AperFunction,ComponentDrill*%
%ADD19C,0.890000*%
%TD*%
%TA.AperFunction,ComponentDrill*%
%ADD20C,1.000000*%
%TD*%
%TA.AperFunction,ComponentDrill*%
%ADD21C,1.020000*%
%TD*%
%TA.AperFunction,ComponentDrill*%
%ADD22C,1.100000*%
%TD*%
%TA.AperFunction,ComponentDrill*%
%ADD23C,1.580000*%
%TD*%
%TA.AperFunction,ComponentDrill*%
%ADD24C,1.800000*%
%TD*%
%TA.AperFunction,ComponentDrill*%
%ADD25C,2.200000*%
%TD*%
%TA.AperFunction,ComponentDrill*%
%ADD26C,3.200000*%
%TD*%
%TA.AperFunction,ComponentDrill*%
%ADD27C,3.730000*%
%TD*%
%TA.AperFunction,ComponentDrill*%
%ADD28C,4.300000*%
%TD*%
G04 APERTURE END LIST*
D10*
X61300000Y-116700000D03*
X62000000Y-116000000D03*
X62500000Y-116500000D03*
X64050000Y-94450000D03*
X64300000Y-124900000D03*
X64300000Y-125700000D03*
X64300000Y-126500000D03*
X64572526Y-94711263D03*
X65150000Y-94450000D03*
X65184799Y-154700000D03*
X65222920Y-144800000D03*
X65300000Y-104000000D03*
X65300000Y-167000000D03*
X65850000Y-217000000D03*
X65999996Y-104899996D03*
X66015000Y-112240000D03*
X66150000Y-224700000D03*
X66222920Y-151550000D03*
X66350000Y-166600000D03*
X66400000Y-146299998D03*
X66400000Y-149000000D03*
X66600000Y-138211000D03*
X66600000Y-138810002D03*
X66650000Y-156000000D03*
X66730000Y-169300000D03*
X67000000Y-166600000D03*
X67050000Y-167260000D03*
X67060000Y-132950000D03*
X67099994Y-104400000D03*
X67110000Y-131500000D03*
X67110000Y-139100000D03*
X67110000Y-142700000D03*
X67110000Y-156900000D03*
X67110000Y-161300000D03*
X67110000Y-164100000D03*
X67152000Y-143682000D03*
X67450000Y-224700000D03*
X67700000Y-117000000D03*
X67800030Y-225700000D03*
X67900000Y-107700000D03*
X68400000Y-225700000D03*
X68590000Y-210330000D03*
X68590000Y-211600000D03*
X68590000Y-212870000D03*
X68590000Y-214140000D03*
X68600000Y-108399998D03*
X68600000Y-153300000D03*
X68674089Y-136700000D03*
X68679050Y-145045919D03*
X68700000Y-136116000D03*
X68716764Y-144040948D03*
X68750000Y-138350000D03*
X68750000Y-139499000D03*
X68785132Y-155315977D03*
X68800000Y-137600000D03*
X68800000Y-155999994D03*
X68800000Y-158900000D03*
X68810000Y-140700000D03*
X68810000Y-141477085D03*
X68810000Y-142322916D03*
X68810000Y-157740000D03*
X68810000Y-164500000D03*
X68810000Y-165490000D03*
X68810000Y-168100000D03*
X68816161Y-156735016D03*
X68830000Y-143370000D03*
X68849998Y-205150000D03*
X68900000Y-160400000D03*
X69199426Y-153599043D03*
X69200000Y-219150000D03*
X69214000Y-141900000D03*
X69300000Y-102900000D03*
X69322910Y-160900000D03*
X69377080Y-141000000D03*
X69400000Y-106200000D03*
X69400000Y-146500000D03*
X69440000Y-133900000D03*
X69500000Y-154200004D03*
X69600000Y-135400000D03*
X69684000Y-142866000D03*
X69720000Y-161460000D03*
X69726377Y-154870380D03*
X69800000Y-147000000D03*
X69922920Y-137200009D03*
X69950000Y-157300000D03*
X70000000Y-131810440D03*
X70000000Y-132389560D03*
X70000000Y-134210440D03*
X70000000Y-134789560D03*
X70000000Y-159670000D03*
X70007389Y-144476318D03*
X70022920Y-145061291D03*
X70022920Y-145670000D03*
X70099997Y-116499997D03*
X70100000Y-112300000D03*
X70140000Y-148310000D03*
X70190000Y-164407900D03*
X70190000Y-164992100D03*
X70190000Y-166807900D03*
X70190000Y-167392100D03*
X70334366Y-139100000D03*
X70900000Y-115300000D03*
X71040000Y-170150000D03*
X71470000Y-196400000D03*
X71890000Y-147100000D03*
X71890000Y-163207900D03*
X71890000Y-163792100D03*
X71890000Y-165607900D03*
X71890000Y-166192100D03*
X71890000Y-168007900D03*
X71890000Y-168592100D03*
X71900000Y-141377080D03*
X71900000Y-153700000D03*
X71900000Y-155000000D03*
X71950000Y-156200000D03*
X72000000Y-159660000D03*
X72080000Y-133010440D03*
X72080000Y-133589560D03*
X72080000Y-135810440D03*
X72080000Y-136389560D03*
X72200000Y-160650000D03*
X72250000Y-162060000D03*
X72500000Y-185700000D03*
X72650000Y-208850000D03*
X72670000Y-161560000D03*
X72800000Y-102900000D03*
X72800000Y-139100000D03*
X72800000Y-145670000D03*
X72850000Y-135370000D03*
X72900000Y-233600000D03*
X73000000Y-132550000D03*
X73100000Y-184450000D03*
X73112005Y-185087995D03*
X73150000Y-202150000D03*
X73200000Y-142300002D03*
X73254050Y-127544050D03*
X73300000Y-133200000D03*
X73700000Y-161200000D03*
X73800000Y-233599994D03*
X73810440Y-193550000D03*
X74389560Y-193550000D03*
X74400000Y-145200000D03*
X74450000Y-134450000D03*
X74450000Y-135050000D03*
X74900000Y-119500000D03*
X75300000Y-165900000D03*
X75300000Y-168150000D03*
X75350000Y-188550000D03*
X75400000Y-145790000D03*
X75800000Y-188100000D03*
X76200000Y-121800000D03*
X76250000Y-187650000D03*
X76300000Y-120100000D03*
X76460000Y-145350000D03*
X76500000Y-120700000D03*
X76700000Y-187199998D03*
X76900000Y-159900000D03*
X77150000Y-96200000D03*
X77174967Y-119884543D03*
X77400000Y-146700000D03*
X77400000Y-159300000D03*
X77800000Y-158019998D03*
X77800000Y-234000000D03*
X77807500Y-133900000D03*
X77900000Y-124900000D03*
X77950000Y-166610440D03*
X77950000Y-167189560D03*
X78000000Y-147800000D03*
X78500000Y-144500000D03*
X78580159Y-125167207D03*
X78600000Y-124400000D03*
X79100000Y-152200000D03*
X79200000Y-153600000D03*
X79300000Y-152900000D03*
X79670000Y-144470000D03*
X79700000Y-117200000D03*
X79700000Y-124500000D03*
X79700000Y-146700000D03*
X79800000Y-130600000D03*
X79899998Y-234000000D03*
X80000000Y-154600000D03*
X80000000Y-157500000D03*
X80276655Y-121271043D03*
X80300000Y-119100000D03*
X80300000Y-119800000D03*
X80300010Y-120500000D03*
X80500000Y-112400000D03*
X80700000Y-116000000D03*
X80750000Y-133900000D03*
X81350000Y-129400000D03*
X81360000Y-221100000D03*
X81500000Y-157500000D03*
X81758597Y-133900000D03*
X81777895Y-137200000D03*
X81850000Y-170260000D03*
X81859356Y-167632508D03*
X81900000Y-109222920D03*
X81910440Y-163200000D03*
X82000000Y-171700000D03*
X82000000Y-176100000D03*
X82038282Y-169277842D03*
X82342800Y-133900000D03*
X82345831Y-147400000D03*
X82360000Y-220600000D03*
X82438476Y-167632508D03*
X82489560Y-163200000D03*
X82600000Y-170700000D03*
X82600000Y-172100000D03*
X82617402Y-169277842D03*
X82740000Y-149950000D03*
X82800000Y-129440000D03*
X83000000Y-64540000D03*
X83000000Y-66940000D03*
X83234620Y-104900000D03*
X83500000Y-104000000D03*
X83657210Y-130300000D03*
X83736372Y-104553716D03*
X83736373Y-104553716D03*
X84070000Y-166260440D03*
X84070000Y-166839560D03*
X84070000Y-167900000D03*
X84100000Y-168650000D03*
X84295250Y-164895250D03*
X84300000Y-104350004D03*
X84300000Y-232100000D03*
X84522910Y-131750683D03*
X84586382Y-174260198D03*
X84704750Y-165304750D03*
X84927080Y-136522920D03*
X85200000Y-174300000D03*
X85219452Y-156864638D03*
X85400000Y-133900000D03*
X85500000Y-153700000D03*
X85500000Y-157378000D03*
X85500000Y-159900000D03*
X85600000Y-207649000D03*
X85600000Y-208324333D03*
X85600000Y-209675000D03*
X85600000Y-212215000D03*
X85882562Y-156935548D03*
X86400000Y-171150000D03*
X86500000Y-140700000D03*
X86700000Y-107800004D03*
X87200000Y-140700000D03*
X87400000Y-216135000D03*
X88300000Y-109222920D03*
X89275000Y-231200000D03*
X89310440Y-222700000D03*
X89889560Y-222700000D03*
X90260440Y-231060000D03*
X90510440Y-229090000D03*
X90839560Y-231060000D03*
X91089560Y-229090000D03*
X91450000Y-108450000D03*
X91550000Y-226505000D03*
X91850000Y-115977080D03*
X93800000Y-235300000D03*
X94000000Y-147500000D03*
X94600000Y-148600000D03*
X94770000Y-168050000D03*
X94860440Y-208750000D03*
X94950000Y-216850000D03*
X95050000Y-115977080D03*
X95439560Y-208750000D03*
X96300000Y-146500000D03*
X96380000Y-235330000D03*
X96550000Y-119500000D03*
X96840870Y-212812215D03*
X97000000Y-132800000D03*
X97100000Y-158797508D03*
X97400000Y-143800000D03*
X97400000Y-144800000D03*
X97400000Y-145600000D03*
X97419990Y-212812215D03*
X97600000Y-117850000D03*
X97960440Y-108350000D03*
X98539560Y-108350000D03*
X98987500Y-179850000D03*
X98992800Y-222200000D03*
X99100000Y-146200000D03*
X99149990Y-229750000D03*
X99350000Y-228000000D03*
X99470000Y-171750000D03*
X99470000Y-172750000D03*
X99470000Y-173750000D03*
X100257900Y-233250000D03*
X100326000Y-171250000D03*
X100326000Y-172250000D03*
X100326000Y-173250000D03*
X100326000Y-174250000D03*
X100507900Y-225800000D03*
X100600000Y-229750000D03*
X100650000Y-115977080D03*
X100842100Y-233250000D03*
X101092100Y-225800000D03*
X101100000Y-175720000D03*
X101182000Y-171750000D03*
X101182000Y-172750000D03*
X101182000Y-173750000D03*
X101200000Y-116400000D03*
X101350000Y-229900000D03*
X101360000Y-168028500D03*
X101400000Y-232040000D03*
X101500000Y-111900000D03*
X102038000Y-172250000D03*
X102038000Y-173250000D03*
X102038000Y-174250000D03*
X102137500Y-179850000D03*
X102142900Y-225965000D03*
X102300000Y-233550000D03*
X102600000Y-112000000D03*
X102727100Y-225965000D03*
X102900000Y-172750000D03*
X103144000Y-173750000D03*
X103447000Y-174250000D03*
X103700000Y-111235382D03*
X103700000Y-112100000D03*
X103707900Y-226100000D03*
X103750000Y-173750000D03*
X103755050Y-172244950D03*
X103800000Y-233550000D03*
X104292100Y-226100000D03*
X104390583Y-228904039D03*
X104400000Y-118570000D03*
X104800000Y-175080000D03*
X104942500Y-189770000D03*
X104974783Y-228904039D03*
X105066599Y-132695000D03*
X105199998Y-122300000D03*
X105507900Y-226300000D03*
X105600000Y-168875000D03*
X106092100Y-226300000D03*
X106235000Y-132695000D03*
X106400000Y-176200000D03*
X106500000Y-210700000D03*
X106800000Y-176650000D03*
X107300000Y-175800000D03*
X107441998Y-201930000D03*
X107707900Y-226085000D03*
X107710000Y-117677080D03*
X107782600Y-177000000D03*
X108000000Y-207430000D03*
X108292100Y-226085000D03*
X108700000Y-218700000D03*
X108800000Y-92600000D03*
X109308000Y-206450000D03*
X109475000Y-131650000D03*
X109600000Y-88500000D03*
X109650000Y-204700000D03*
X109800000Y-122400000D03*
X110000000Y-219200000D03*
X110087500Y-179425000D03*
X110799998Y-92400000D03*
X111050957Y-95350957D03*
X111299998Y-157400000D03*
X111300000Y-93400000D03*
X111400000Y-90200000D03*
X111832000Y-212200000D03*
X112000000Y-203300000D03*
X112050000Y-157400000D03*
X112250000Y-79555610D03*
X112273846Y-92209565D03*
X113300000Y-96399996D03*
X113350000Y-79555610D03*
X113500000Y-213900000D03*
X113600000Y-99500002D03*
X113962955Y-204462955D03*
X114180000Y-202300000D03*
X114500000Y-98100000D03*
X114500000Y-212000000D03*
X114687000Y-169987000D03*
X114850000Y-209800000D03*
X114900000Y-119300000D03*
X114950000Y-207900000D03*
X115054236Y-206645764D03*
X115400010Y-210622920D03*
X115500000Y-154850000D03*
X115500014Y-98000000D03*
X115550000Y-72475000D03*
X115750000Y-205280000D03*
X115800000Y-212699994D03*
X116300000Y-206499992D03*
X116700000Y-139400000D03*
X116977090Y-205400000D03*
X117387000Y-169987000D03*
X117750000Y-118522920D03*
X117837000Y-164572000D03*
X118200000Y-75110000D03*
X118500000Y-213900000D03*
X118700000Y-204800000D03*
X118800000Y-141500000D03*
X119057500Y-152613000D03*
X119057500Y-153198000D03*
X119500000Y-199050000D03*
X119519000Y-205352000D03*
X119700000Y-213025000D03*
X120040000Y-203150000D03*
X120100000Y-199050000D03*
X120142618Y-120499858D03*
X120477000Y-205100000D03*
X120726826Y-120501825D03*
X121119803Y-203112124D03*
X121310683Y-120481477D03*
X121500000Y-111500000D03*
X121666000Y-201167994D03*
X121874155Y-120635756D03*
X122000000Y-111100000D03*
X122049043Y-200049043D03*
X122250000Y-212700000D03*
X122500000Y-111500000D03*
X122502201Y-201216430D03*
X123000000Y-92975000D03*
X123000000Y-111100000D03*
X123219324Y-212495315D03*
X123250000Y-150650000D03*
X123400000Y-209224996D03*
X123725000Y-95750000D03*
X123783000Y-207217000D03*
X123783000Y-207997000D03*
X123791467Y-208654205D03*
X123816967Y-209857570D03*
X123950000Y-154600000D03*
X124300000Y-210699986D03*
X124500000Y-209400000D03*
X124614566Y-210127131D03*
X125447115Y-205734408D03*
X125499976Y-204000000D03*
X125500000Y-204877080D03*
X125900000Y-217500000D03*
X125953820Y-204454168D03*
X125999990Y-205300000D03*
X126000014Y-206200000D03*
X126300000Y-127900000D03*
X126600000Y-120400000D03*
X126759000Y-177005700D03*
X126759000Y-177530700D03*
X126800000Y-213700000D03*
X127284000Y-177005700D03*
X127284000Y-177530700D03*
X127300000Y-120399994D03*
X127500000Y-113800000D03*
X127599000Y-158101000D03*
X127700000Y-129000000D03*
X127800000Y-233000000D03*
X128000000Y-114367000D03*
X128063942Y-120347445D03*
X128500000Y-115800000D03*
X128500000Y-128600000D03*
X128800000Y-120299994D03*
X129300000Y-127400000D03*
X129300000Y-157000000D03*
X129477080Y-220600000D03*
X129800000Y-154100000D03*
X129838369Y-115900000D03*
X130188179Y-114800000D03*
X130500000Y-170300000D03*
X131050000Y-169750000D03*
X131050000Y-170300000D03*
X131095378Y-116160002D03*
X131550000Y-169250000D03*
X131800000Y-207625000D03*
X132129151Y-208265392D03*
X132150000Y-168700000D03*
X132150000Y-169250000D03*
X132176472Y-208847684D03*
X132200000Y-209484213D03*
X132300000Y-206900000D03*
X132750000Y-168150000D03*
X132750000Y-168700000D03*
X132750000Y-169250000D03*
X132900000Y-207600000D03*
X132900000Y-219800000D03*
X133000000Y-111500000D03*
X133010000Y-210820000D03*
X133500000Y-111100000D03*
X133643800Y-206455612D03*
X134000000Y-111600000D03*
X134000000Y-157700000D03*
X134300000Y-121600000D03*
X134500000Y-111100000D03*
X134500000Y-157000000D03*
X134500000Y-211500000D03*
X134980000Y-213100000D03*
X135210440Y-119000000D03*
X135220000Y-213900000D03*
X135300000Y-157000000D03*
X135300000Y-158250000D03*
X135789560Y-119000000D03*
X135800000Y-158600000D03*
X135800000Y-186100000D03*
X135877080Y-211422920D03*
X136300000Y-157000000D03*
X136300000Y-210500000D03*
X136470000Y-186100000D03*
X136750000Y-155550000D03*
X137300000Y-188100000D03*
X137355440Y-124541000D03*
X137400000Y-155071401D03*
X137500000Y-178100000D03*
X137600000Y-221300000D03*
X137800000Y-188600000D03*
X137920000Y-158410440D03*
X137920000Y-158989560D03*
X137920000Y-161610440D03*
X137920000Y-162189560D03*
X137934560Y-124541000D03*
X137960000Y-156500000D03*
X138185440Y-125500000D03*
X138300000Y-209500000D03*
X138625000Y-223125000D03*
X138764560Y-125500000D03*
X139200000Y-207550000D03*
X139375000Y-223100000D03*
X139795845Y-142056752D03*
X140250500Y-214325002D03*
X140300000Y-148199994D03*
X140374965Y-142056752D03*
X140500000Y-158150000D03*
X140600000Y-159250000D03*
X140625035Y-140505305D03*
X140948779Y-157585952D03*
X141000000Y-154900000D03*
X141000000Y-155700000D03*
X141000000Y-156400000D03*
X141000000Y-157000000D03*
X141025000Y-105750000D03*
X141100000Y-147000000D03*
X141100000Y-159700000D03*
X141100000Y-160700004D03*
X141180000Y-163820000D03*
X141190000Y-154100000D03*
X141190000Y-167820000D03*
X141199996Y-166811212D03*
X141200000Y-165800000D03*
X141200000Y-168900000D03*
X141200008Y-162600000D03*
X141204155Y-140505305D03*
X141260000Y-164810000D03*
X142200000Y-151200000D03*
X142870000Y-160100000D03*
X142885440Y-102600000D03*
X142888270Y-161299073D03*
X142890000Y-162500000D03*
X142890000Y-164100000D03*
X142890000Y-166100000D03*
X142890000Y-167300000D03*
X142899998Y-221800000D03*
X142900000Y-153300000D03*
X142900000Y-165090000D03*
X142950000Y-168290000D03*
X143175000Y-101078133D03*
X143175000Y-101657253D03*
X143225000Y-224015000D03*
X143464560Y-102600000D03*
X143500000Y-143700000D03*
X143714939Y-103558417D03*
X143714939Y-104137537D03*
X143840949Y-165685350D03*
X143850000Y-111768886D03*
X143850000Y-161610440D03*
X143850000Y-162189560D03*
X144000000Y-99450000D03*
X144100000Y-115200000D03*
X144575000Y-99000000D03*
X144700000Y-115200000D03*
X144700000Y-154200000D03*
X144767389Y-153100000D03*
X144900000Y-226300000D03*
X145100000Y-223650000D03*
X145175000Y-99450002D03*
X145385000Y-222099998D03*
X145400000Y-110200000D03*
X145400000Y-116500000D03*
X145565824Y-113215824D03*
X145700000Y-117675000D03*
X145804840Y-101078133D03*
X145804840Y-101657253D03*
X145804840Y-103558417D03*
X145804840Y-104137537D03*
X146400000Y-223400000D03*
X146400000Y-224300000D03*
X146700000Y-211500000D03*
X146850000Y-196300000D03*
X147200000Y-222100000D03*
X147845000Y-158410440D03*
X147845000Y-158989560D03*
X147850000Y-148900000D03*
X147857699Y-162059598D03*
X148000000Y-155300000D03*
X148400000Y-226235000D03*
X148840000Y-196300000D03*
D11*
X60470000Y-86860000D03*
X60600000Y-144285000D03*
X60750000Y-100750000D03*
X60800000Y-160285000D03*
X60854000Y-152515000D03*
X60870000Y-165237500D03*
X60870000Y-165987500D03*
X60870000Y-166737500D03*
X60870000Y-167487500D03*
X60870000Y-168237500D03*
X60870000Y-168987500D03*
X60870000Y-172212500D03*
X60870000Y-172962500D03*
X60870000Y-173712500D03*
X60870000Y-174462500D03*
X60870000Y-175212500D03*
X60870000Y-175962500D03*
X60900000Y-89900000D03*
X61470000Y-87360000D03*
X62470000Y-86860000D03*
X62700000Y-103128320D03*
X62700000Y-107000000D03*
X62750000Y-105100000D03*
X63300000Y-181825000D03*
X63470000Y-87360000D03*
X63600000Y-203400000D03*
X63600000Y-219700000D03*
X63800000Y-109615000D03*
X63810000Y-215120000D03*
X64310000Y-96800000D03*
X64470000Y-86860000D03*
X64500000Y-115800000D03*
X64550000Y-135325000D03*
X64660000Y-132470000D03*
X64860000Y-218900000D03*
X64910000Y-117537500D03*
X65015000Y-106300000D03*
X65400000Y-103300000D03*
X65410000Y-96800000D03*
X65470000Y-87360000D03*
X66410000Y-140390000D03*
X66410000Y-144610000D03*
X66470000Y-86860000D03*
X67110000Y-158800000D03*
X67110000Y-160100000D03*
X67470000Y-87360000D03*
X67600000Y-114000000D03*
X67800000Y-106900000D03*
X68300000Y-103128320D03*
X68470000Y-86860000D03*
X68650000Y-84637000D03*
X68660000Y-130620000D03*
X68800000Y-166400000D03*
X69100000Y-199800000D03*
X69400000Y-115900000D03*
X69470000Y-87360000D03*
X69535000Y-84950000D03*
X69600000Y-107650000D03*
X69600000Y-110500000D03*
X69750000Y-233240000D03*
X69900000Y-156100000D03*
X69956585Y-113218343D03*
X70000000Y-138500000D03*
X70000000Y-153700000D03*
X70057660Y-143868456D03*
X70100000Y-163100000D03*
X70110000Y-83987000D03*
X70185000Y-85650000D03*
X70200000Y-158500000D03*
X70200000Y-165900000D03*
X70200000Y-221500000D03*
X70200007Y-168299993D03*
X70210000Y-215120000D03*
X70227011Y-196507011D03*
X70326859Y-141892852D03*
X70600000Y-86700000D03*
X71209261Y-236548320D03*
X71570000Y-84637000D03*
X71850000Y-137248000D03*
X71890000Y-131500000D03*
X71900000Y-75300000D03*
X71900000Y-77300000D03*
X71900000Y-79300000D03*
X71900000Y-81300000D03*
X71987500Y-221800000D03*
X71987500Y-223050000D03*
X72010000Y-85760000D03*
X72033447Y-145544510D03*
X72070000Y-210330000D03*
X72070000Y-212860000D03*
X72670496Y-136645496D03*
X72700000Y-74560000D03*
X72700000Y-76300000D03*
X72700000Y-78300000D03*
X72700000Y-80300000D03*
X72800000Y-84000000D03*
X72911802Y-146671222D03*
X73000000Y-165300000D03*
X73017012Y-193717010D03*
X73300000Y-81300000D03*
X73365000Y-164100000D03*
X73415000Y-138297000D03*
X73450000Y-85100000D03*
X73575000Y-75500000D03*
X73850000Y-79475000D03*
X74160000Y-131500000D03*
X74200000Y-74560000D03*
X74200000Y-151815000D03*
X74225000Y-85800000D03*
X74231647Y-174187500D03*
X74250000Y-90100000D03*
X74252989Y-158912989D03*
X74425000Y-236932200D03*
X74435000Y-156200000D03*
X74700000Y-110087500D03*
X74700000Y-116312500D03*
X74860000Y-59200000D03*
X74860000Y-61200000D03*
X74860000Y-63200000D03*
X74860000Y-65200000D03*
X74860000Y-67200000D03*
X74860000Y-69200000D03*
X74860000Y-71200000D03*
X74860000Y-73200000D03*
X74900000Y-153435000D03*
X74973761Y-193900000D03*
X75025000Y-80300000D03*
X75025000Y-85000000D03*
X75200000Y-75100000D03*
X75500000Y-87500000D03*
X75532500Y-130995000D03*
X75532500Y-132345000D03*
X75683940Y-138346060D03*
X75750000Y-99750000D03*
X75775000Y-85800000D03*
X75800000Y-79475000D03*
X75860000Y-60200000D03*
X75860000Y-62200000D03*
X75860000Y-64200000D03*
X75860000Y-66200000D03*
X75860000Y-68200000D03*
X75860000Y-70200000D03*
X75860000Y-72200000D03*
X75860000Y-74200000D03*
X75975000Y-162315000D03*
X76100000Y-201125000D03*
X76600000Y-80200000D03*
X76600000Y-85100000D03*
X76695000Y-82650000D03*
X76700000Y-117200000D03*
X76712500Y-175412500D03*
X76920000Y-202500000D03*
X76950000Y-233950000D03*
X77800000Y-124200000D03*
X77950000Y-165600000D03*
X77950000Y-167850000D03*
X77950000Y-169100000D03*
X77950000Y-169750000D03*
X77950000Y-171650000D03*
X78425000Y-237075000D03*
X78830000Y-137500000D03*
X79007500Y-130995000D03*
X79050000Y-118600000D03*
X79500000Y-155100000D03*
X79720000Y-199700000D03*
X79800000Y-153900000D03*
X79962500Y-128015000D03*
X80300000Y-124300000D03*
X80750000Y-136548320D03*
X81000000Y-121800000D03*
X81050000Y-107800000D03*
X81250000Y-140180000D03*
X81250000Y-144420000D03*
X81550000Y-175049998D03*
X81600000Y-176800000D03*
X81700000Y-226915000D03*
X81700000Y-228365000D03*
X81700000Y-229815000D03*
X81700000Y-231265000D03*
X81850000Y-107800000D03*
X82093335Y-129480140D03*
X82099992Y-224800000D03*
X82100000Y-223000000D03*
X82100006Y-221800000D03*
X82530000Y-219825000D03*
X83325000Y-237725000D03*
X83850000Y-112500000D03*
X84100000Y-170150000D03*
X84827896Y-137124409D03*
X85100000Y-155300000D03*
X85200000Y-177287500D03*
X85300000Y-179100000D03*
X85399992Y-126800000D03*
X85400000Y-124530000D03*
X85400000Y-155900000D03*
X85500000Y-154800000D03*
X85600000Y-213485000D03*
X85600000Y-214755000D03*
X86000000Y-153100000D03*
X86000000Y-154200000D03*
X86250000Y-112500000D03*
X86285000Y-221800000D03*
X86345000Y-132769500D03*
X86500000Y-167150000D03*
X86700000Y-143600000D03*
X86700000Y-147500000D03*
X87000000Y-179100000D03*
X87030000Y-179800000D03*
X87046243Y-224303757D03*
X87600000Y-65740000D03*
X87730000Y-164440000D03*
X87850000Y-168562500D03*
X87860000Y-133900000D03*
X87893000Y-130494500D03*
X87925000Y-229090000D03*
X88050000Y-227390000D03*
X88300000Y-106952920D03*
X88300000Y-116300000D03*
X89000000Y-174700000D03*
X89300000Y-179800000D03*
X89350000Y-204000000D03*
X89362500Y-138120000D03*
X89425000Y-229090000D03*
X89550000Y-227390000D03*
X89712500Y-138870000D03*
X89800000Y-226375000D03*
X89950000Y-224200000D03*
X90250000Y-160500000D03*
X90462500Y-138870000D03*
X90462500Y-139620000D03*
X90600000Y-202916334D03*
X90600000Y-203824667D03*
X90600000Y-210095333D03*
X90600000Y-211003666D03*
X90650000Y-107800000D03*
X90700000Y-236050000D03*
X90937500Y-220410000D03*
X91000000Y-161250000D03*
X91212500Y-139620000D03*
X91212500Y-140370000D03*
X91290000Y-212635000D03*
X91290000Y-214135000D03*
X91290000Y-217635000D03*
X91290000Y-219060000D03*
X91292000Y-216135000D03*
X91400000Y-126200000D03*
X91400000Y-202916334D03*
X91400000Y-203824667D03*
X91400000Y-210095333D03*
X91400000Y-211003666D03*
X91800000Y-197798000D03*
X91850000Y-112500000D03*
X91925000Y-229090000D03*
X91950000Y-224200000D03*
X92050000Y-227390000D03*
X92200000Y-202916334D03*
X92200000Y-203824667D03*
X92200000Y-210095333D03*
X92200000Y-211003666D03*
X92900000Y-236050000D03*
X93000000Y-126200000D03*
X93000000Y-128935000D03*
X93000000Y-202916334D03*
X93000000Y-203824667D03*
X93000000Y-210095333D03*
X93000000Y-211003666D03*
X93035000Y-237085000D03*
X93050000Y-107800000D03*
X93425000Y-229090000D03*
X93430000Y-117200000D03*
X93550000Y-227390000D03*
X93850000Y-107800000D03*
X93986000Y-224239277D03*
X94250000Y-112500000D03*
X94500000Y-147900000D03*
X94925000Y-225174998D03*
X95050000Y-112500000D03*
X95300000Y-148700000D03*
X95735000Y-205410000D03*
X95800000Y-146000000D03*
X95900000Y-224550000D03*
X96001000Y-203825000D03*
X96087500Y-202475000D03*
X96550000Y-225300000D03*
X96600000Y-230400000D03*
X96612500Y-229000000D03*
X96800000Y-146000000D03*
X96850000Y-91800000D03*
X97050000Y-107800000D03*
X97100000Y-208730000D03*
X97290400Y-167700000D03*
X97300000Y-120400000D03*
X97350000Y-170650000D03*
X97400000Y-211000000D03*
X97412500Y-180150000D03*
X97450000Y-112500000D03*
X98232500Y-229698000D03*
X98470000Y-75450000D03*
X98660000Y-157971500D03*
X98925000Y-129250000D03*
X99000000Y-112500000D03*
X99000000Y-227450000D03*
X99000000Y-235500000D03*
X99040000Y-121532500D03*
X99040000Y-122282500D03*
X99040000Y-123032500D03*
X99040000Y-123782500D03*
X99040000Y-124532500D03*
X99050000Y-115950000D03*
X99295333Y-160950000D03*
X99295333Y-161633333D03*
X99295333Y-162316667D03*
X99295333Y-163000000D03*
X99295333Y-163683333D03*
X99295333Y-164366666D03*
X99295333Y-165050000D03*
X99300000Y-168800004D03*
X99450000Y-107800000D03*
X99650000Y-225300000D03*
X99700000Y-128875000D03*
X99790000Y-121532500D03*
X99790000Y-122282500D03*
X99790000Y-123032500D03*
X99790000Y-123782500D03*
X99790000Y-124532500D03*
X99800000Y-236450000D03*
X99900000Y-222250000D03*
X100000000Y-168028500D03*
X100010000Y-157971500D03*
X100210000Y-213035000D03*
X100210000Y-217235000D03*
X100210000Y-218735000D03*
X100327667Y-160950000D03*
X100327667Y-161633333D03*
X100327667Y-162316667D03*
X100327667Y-163000000D03*
X100327667Y-163683333D03*
X100327667Y-164366666D03*
X100327667Y-165050000D03*
X100490000Y-128882500D03*
X100540000Y-121532500D03*
X100540000Y-122282500D03*
X100540000Y-123032500D03*
X100540000Y-123782500D03*
X100540000Y-124532500D03*
X100590000Y-129884500D03*
X100650000Y-112500000D03*
X100947200Y-134750000D03*
X100947200Y-135500000D03*
X101040000Y-236135000D03*
X101240000Y-227500000D03*
X101290000Y-130400000D03*
X101360000Y-157971500D03*
X101360000Y-160950000D03*
X101360000Y-161633333D03*
X101360000Y-162316667D03*
X101360000Y-163000000D03*
X101360000Y-163683333D03*
X101360000Y-164366666D03*
X101360000Y-165050000D03*
X101400000Y-228150000D03*
X101987500Y-137845000D03*
X102085000Y-169062500D03*
X102124398Y-232050000D03*
X102290000Y-130400000D03*
X102300000Y-117200000D03*
X102300000Y-117200000D03*
X102300000Y-236450000D03*
X102600000Y-215900000D03*
X102600000Y-216550000D03*
X102870000Y-168062500D03*
X102980000Y-171337500D03*
X103150000Y-76332500D03*
X103250000Y-135250000D03*
X103250000Y-136000000D03*
X103250000Y-136750000D03*
X103270034Y-222524966D03*
X103290000Y-130400000D03*
X103450000Y-107800000D03*
X103600000Y-167362500D03*
X103612500Y-74750000D03*
X103625000Y-133000000D03*
X103625000Y-133750000D03*
X103625000Y-134500000D03*
X103650000Y-219800000D03*
X103777500Y-176200000D03*
X103800000Y-236450000D03*
X103990000Y-129882500D03*
X104000000Y-135250000D03*
X104000000Y-136000000D03*
X104000000Y-136750000D03*
X104075000Y-171155000D03*
X104090000Y-128882500D03*
X104200000Y-232050000D03*
X104250000Y-107800000D03*
X104500000Y-134315000D03*
X104915000Y-177750000D03*
X104950000Y-167362500D03*
X105085000Y-116015000D03*
X105165000Y-131150000D03*
X105220000Y-125120000D03*
X105290000Y-236450000D03*
X105393947Y-232043947D03*
X105560000Y-134655000D03*
X106115000Y-128250000D03*
X106250000Y-217650000D03*
X106487500Y-190500000D03*
X106585000Y-139800000D03*
X106750000Y-217150000D03*
X106800000Y-59600000D03*
X106800000Y-61100000D03*
X106800000Y-62600000D03*
X106800000Y-64100000D03*
X106800000Y-65600000D03*
X106800000Y-67100000D03*
X106800000Y-68600000D03*
X106800000Y-70100000D03*
X106800000Y-71600000D03*
X106800000Y-73100000D03*
X106950000Y-205800000D03*
X107000000Y-74500000D03*
X107085000Y-129650000D03*
X107200000Y-227500000D03*
X107300000Y-228930000D03*
X107700000Y-220900000D03*
X107750000Y-75250000D03*
X107850000Y-227250000D03*
X107955000Y-177787500D03*
X107980000Y-122022500D03*
X108046000Y-125930000D03*
X108500000Y-74500000D03*
X108565000Y-175512500D03*
X108760000Y-130450000D03*
X109240000Y-174720000D03*
X109250000Y-75250000D03*
X109415000Y-177787500D03*
X109700000Y-209375000D03*
X109800000Y-120900000D03*
X109850000Y-215250000D03*
X109900000Y-213800000D03*
X109925000Y-170650000D03*
X110000000Y-74500000D03*
X110000000Y-98737500D03*
X110000000Y-99487500D03*
X110000000Y-100237500D03*
X110000000Y-114862500D03*
X110000000Y-115612500D03*
X110000000Y-116362500D03*
X110000000Y-117100000D03*
X110020000Y-123225000D03*
X110020000Y-123975000D03*
X110020000Y-124725000D03*
X110350000Y-232350000D03*
X110445000Y-140448000D03*
X110525000Y-210273000D03*
X110600000Y-170245000D03*
X110600000Y-170920000D03*
X110625000Y-101700000D03*
X110700000Y-107175000D03*
X110700000Y-107925000D03*
X110750000Y-75250000D03*
X110790000Y-139173000D03*
X110800000Y-217500000D03*
X110900000Y-88300000D03*
X111000000Y-97987500D03*
X111000000Y-119400000D03*
X111190000Y-140190000D03*
X111275000Y-170650000D03*
X111500000Y-74500000D03*
X111540000Y-138140004D03*
X111540000Y-138890000D03*
X111700000Y-107175000D03*
X111700000Y-107925000D03*
X111740000Y-139640000D03*
X111800000Y-119200000D03*
X112075000Y-206327000D03*
X112120000Y-134887500D03*
X112165000Y-211650000D03*
X112250000Y-75250000D03*
X112280000Y-131912500D03*
X112290000Y-139090000D03*
X112380000Y-135919000D03*
X112650000Y-93450000D03*
X112700000Y-107175000D03*
X112700000Y-107925000D03*
X112905000Y-176225000D03*
X112905000Y-176845000D03*
X113000000Y-74500000D03*
X113000000Y-76000000D03*
X113000000Y-205215000D03*
X113300000Y-206185000D03*
X113300000Y-207225000D03*
X113300000Y-210085000D03*
X113380000Y-137194000D03*
X113380000Y-137944000D03*
X113400000Y-100237500D03*
X113400000Y-114862500D03*
X113400000Y-115612500D03*
X113400000Y-116362500D03*
X113525000Y-176225000D03*
X113525000Y-176845000D03*
X113600000Y-216300000D03*
X113750000Y-77000000D03*
X113765000Y-82700000D03*
X113765000Y-83800000D03*
X113765000Y-84900000D03*
X113765000Y-86000000D03*
X113930000Y-75110000D03*
X114145000Y-174365000D03*
X114145000Y-174985000D03*
X114145000Y-175605000D03*
X114145000Y-176225000D03*
X114145000Y-176845000D03*
X114150500Y-134187000D03*
X114300000Y-172200000D03*
X114337000Y-158667000D03*
X114500000Y-76000000D03*
X114687000Y-168187000D03*
X114765000Y-174365000D03*
X114765000Y-174985000D03*
X114765000Y-175605000D03*
X114765000Y-176225000D03*
X114765000Y-176845000D03*
X114900000Y-91900000D03*
X115250000Y-77000000D03*
X115385000Y-174365000D03*
X115385000Y-174985000D03*
X115385000Y-175605000D03*
X115385000Y-176225000D03*
X115385000Y-176845000D03*
X115750000Y-95745000D03*
X115800000Y-215635000D03*
X115835000Y-92800000D03*
X116000000Y-76000000D03*
X116400000Y-155900000D03*
X116400000Y-156650000D03*
X116400000Y-157400000D03*
X116750000Y-77000000D03*
X117000000Y-158050000D03*
X117075000Y-155285000D03*
X117400000Y-156650000D03*
X117400000Y-157400000D03*
X117500000Y-76000000D03*
X117700000Y-205299988D03*
X117900000Y-108590000D03*
X118000000Y-158050000D03*
X118250000Y-77000000D03*
X118400000Y-156650000D03*
X118400000Y-157400000D03*
X118449164Y-202107627D03*
X118537000Y-162800000D03*
X118600000Y-108590000D03*
X118600000Y-216235000D03*
X118775000Y-155335000D03*
X118830000Y-98825000D03*
X118900000Y-156050000D03*
X119000000Y-74500000D03*
X119000000Y-76000000D03*
X119000000Y-158050000D03*
X119057500Y-152002500D03*
X119250000Y-177787500D03*
X119400000Y-122000000D03*
X119400000Y-122800000D03*
X119400000Y-156650000D03*
X119400000Y-157400000D03*
X119515000Y-119985000D03*
X119690000Y-95100000D03*
X119700000Y-75200000D03*
X119790000Y-93975000D03*
X120400000Y-74500000D03*
X121025000Y-152120000D03*
X121025000Y-154030000D03*
X121100000Y-75200000D03*
X121100000Y-98825000D03*
X121185000Y-119300000D03*
X121400000Y-216235000D03*
X121500000Y-104865000D03*
X121500000Y-107135000D03*
X121515000Y-174425000D03*
X121515000Y-175037500D03*
X121515000Y-175650000D03*
X121765000Y-177975000D03*
X121765000Y-179325000D03*
X121800000Y-74500000D03*
X121800000Y-202900000D03*
X121900000Y-162800000D03*
X122060000Y-93975000D03*
X122215000Y-174425000D03*
X122215000Y-175037500D03*
X122215000Y-175650000D03*
X122400000Y-123985002D03*
X122450000Y-123150000D03*
X122500000Y-75200000D03*
X122600000Y-151108600D03*
X122700000Y-120100002D03*
X122800000Y-202900000D03*
X122950000Y-154147500D03*
X123200000Y-74500000D03*
X123850000Y-121800000D03*
X123850000Y-123015000D03*
X123875000Y-159812500D03*
X123885000Y-119300000D03*
X123900000Y-75200000D03*
X124000000Y-169100000D03*
X124000000Y-169900000D03*
X124000000Y-170700000D03*
X124200000Y-160500000D03*
X124200000Y-161250000D03*
X124200000Y-162000000D03*
X124200000Y-162000000D03*
X124200000Y-163561610D03*
X124600000Y-71000000D03*
X124600000Y-73000000D03*
X124600000Y-74500000D03*
X124800000Y-169100000D03*
X124800000Y-169900000D03*
X124800000Y-170700000D03*
X124950000Y-160500000D03*
X124950000Y-161250000D03*
X124950000Y-162000000D03*
X124950000Y-162000000D03*
X124950000Y-163561610D03*
X125150000Y-72000000D03*
X125500000Y-73900000D03*
X125600000Y-169100000D03*
X125600000Y-169900000D03*
X125600000Y-170700000D03*
X125651680Y-212600000D03*
X125700000Y-162000000D03*
X125700000Y-163561610D03*
X125800000Y-72900000D03*
X126000000Y-71000000D03*
X126097000Y-160351000D03*
X126100000Y-122000000D03*
X126100000Y-122800000D03*
X126400000Y-169100000D03*
X126400000Y-169900000D03*
X126400000Y-170700000D03*
X126425000Y-72000000D03*
X126450000Y-162000000D03*
X126450000Y-163561610D03*
X126500000Y-104865000D03*
X126500000Y-107135000D03*
X126525000Y-127160000D03*
X126700000Y-119300000D03*
X127200000Y-162000000D03*
X127200000Y-163561610D03*
X127200000Y-169100000D03*
X127200000Y-169900000D03*
X127200000Y-170700000D03*
X127400000Y-71000000D03*
X127700000Y-72000000D03*
X127717000Y-161051000D03*
X127887500Y-155900000D03*
X127950000Y-162000000D03*
X127950000Y-163561610D03*
X127985000Y-207100000D03*
X128215000Y-125075000D03*
X128250000Y-125750000D03*
X128700000Y-71600000D03*
X128900000Y-72900000D03*
X128900000Y-212900000D03*
X129000000Y-121000000D03*
X129100000Y-116551680D03*
X129198000Y-123984000D03*
X129231000Y-123150000D03*
X129265000Y-122400000D03*
X129440000Y-119300000D03*
X129500000Y-208965000D03*
X129650000Y-211350000D03*
X129651000Y-205549000D03*
X129900000Y-226500000D03*
X130075000Y-72200000D03*
X130250000Y-73500000D03*
X130309000Y-125549000D03*
X130400000Y-219600000D03*
X130500000Y-120815000D03*
X130900000Y-171600000D03*
X130950000Y-74800000D03*
X131000000Y-124900000D03*
X131100000Y-173300000D03*
X131200000Y-172700000D03*
X131285006Y-127750000D03*
X131500000Y-104865000D03*
X131500000Y-107135000D03*
X131697988Y-173097988D03*
X131700000Y-73800000D03*
X131825000Y-172437500D03*
X132000000Y-111090000D03*
X132150000Y-178050000D03*
X132385000Y-213500000D03*
X132450000Y-74800000D03*
X133150000Y-73500000D03*
X133325000Y-72200000D03*
X133582500Y-163560000D03*
X133582500Y-166960000D03*
X133675000Y-77050000D03*
X133675000Y-78550000D03*
X133976000Y-66600000D03*
X133976000Y-69600000D03*
X134332500Y-163560000D03*
X134332500Y-166960000D03*
X134500000Y-72900000D03*
X134500000Y-118800000D03*
X134551680Y-204025000D03*
X134700000Y-71600000D03*
X134700000Y-77800000D03*
X134900000Y-219400000D03*
X135000000Y-76350000D03*
X135000000Y-79250000D03*
X135000000Y-224900000D03*
X135082500Y-163560000D03*
X135082500Y-166960000D03*
X135240000Y-223960000D03*
X135400000Y-108590000D03*
X135450000Y-75150000D03*
X135500000Y-120400000D03*
X135525000Y-80650000D03*
X135600000Y-125700000D03*
X135650000Y-74050000D03*
X135700000Y-70600000D03*
X135800000Y-72300000D03*
X136100000Y-108590000D03*
X136300000Y-76175000D03*
X136300000Y-79425000D03*
X136500000Y-81775000D03*
X136500000Y-82825000D03*
X136500000Y-84325000D03*
X136500000Y-85825000D03*
X136500000Y-87325000D03*
X136500000Y-88825000D03*
X136500000Y-90325000D03*
X136500000Y-91825000D03*
X136550000Y-69725000D03*
X136650000Y-71550000D03*
X136650000Y-73050000D03*
X136900000Y-74800000D03*
X136900000Y-80800000D03*
X137000000Y-160700000D03*
X137050000Y-118850000D03*
X137325000Y-150100000D03*
X137325000Y-206325000D03*
X137400000Y-70800000D03*
X137400000Y-72300000D03*
X137400000Y-73800000D03*
X137500000Y-209175000D03*
X137500000Y-219600000D03*
X137500000Y-223700000D03*
X137550000Y-82075000D03*
X137550000Y-83575000D03*
X137550000Y-85075000D03*
X137550000Y-86575000D03*
X137550000Y-88075000D03*
X137550000Y-89575000D03*
X137550000Y-91075000D03*
X137715000Y-213500000D03*
X137849998Y-129925000D03*
X137850000Y-130725000D03*
X137850000Y-138487500D03*
X137850000Y-139287500D03*
X137900000Y-163000000D03*
X137925000Y-222100000D03*
X137980000Y-97990000D03*
X137980000Y-100887500D03*
X137980000Y-103101514D03*
X137980000Y-105460000D03*
X138050000Y-69725000D03*
X138100000Y-146124620D03*
X138100000Y-153200000D03*
X138110000Y-132300000D03*
X138110000Y-132300000D03*
X138110000Y-133100000D03*
X138110000Y-133900000D03*
X138110000Y-134700000D03*
X138110000Y-135500000D03*
X138110000Y-136500000D03*
X138110000Y-137300000D03*
X138110000Y-143300000D03*
X138212500Y-203550000D03*
X138262500Y-140900000D03*
X138275000Y-92225000D03*
X138900000Y-80076000D03*
X138900000Y-227300000D03*
X138960000Y-148650000D03*
X139000000Y-91175000D03*
X139200000Y-201780000D03*
X139200000Y-204050000D03*
X139550000Y-69725000D03*
X139750000Y-99312500D03*
X139750000Y-102131514D03*
X139750000Y-104061514D03*
X139750000Y-107500000D03*
X139775000Y-92225000D03*
X139800000Y-148800000D03*
X139900000Y-153500000D03*
X139900000Y-160900000D03*
X140000000Y-98125000D03*
X140100000Y-116700000D03*
X140202007Y-219367985D03*
X140500000Y-91175000D03*
X140510000Y-116060000D03*
X141000000Y-170300000D03*
X141025000Y-99150000D03*
X141025000Y-100350000D03*
X141025000Y-102150000D03*
X141025000Y-103950000D03*
X141050000Y-69725000D03*
X141190000Y-142300000D03*
X141218516Y-115131484D03*
X141275000Y-92225000D03*
X141435000Y-186800000D03*
X141675500Y-211725000D03*
X141815000Y-184450000D03*
X141900000Y-80076000D03*
X142000000Y-91175000D03*
X142000000Y-228035000D03*
X142368990Y-99150000D03*
X142375000Y-108150000D03*
X142400000Y-93050000D03*
X142400000Y-94300000D03*
X142400000Y-95550000D03*
X142449000Y-106950000D03*
X142500000Y-104100000D03*
X142550000Y-69725000D03*
X142600000Y-91950000D03*
X142600000Y-110166514D03*
X142700000Y-220000000D03*
X142890000Y-132300000D03*
X142890000Y-133100000D03*
X142890000Y-133900000D03*
X142890000Y-134700000D03*
X142890000Y-135500000D03*
X142890000Y-136500000D03*
X142890000Y-137500000D03*
X142890000Y-138300000D03*
X142890000Y-139100000D03*
X142890000Y-139900000D03*
X142890000Y-140700000D03*
X142890000Y-141500000D03*
X142890000Y-144900000D03*
X142900000Y-163324620D03*
X143000000Y-154100000D03*
X143100000Y-159256514D03*
X143150000Y-130725000D03*
X143150000Y-131510000D03*
X143225000Y-224645002D03*
X143275000Y-209700000D03*
X143399998Y-226050000D03*
X143400000Y-228600000D03*
X143500000Y-91175000D03*
X143500000Y-92425000D03*
X143500000Y-93675000D03*
X143500000Y-94925000D03*
X143500000Y-96175000D03*
X143590000Y-160520000D03*
X143740000Y-181650000D03*
X143817009Y-116817009D03*
X143900000Y-106650000D03*
X144050000Y-69725000D03*
X144075000Y-209700000D03*
X144500000Y-118000000D03*
X144700000Y-96175000D03*
X145250000Y-103050000D03*
X145250000Y-104850000D03*
X145261177Y-100361866D03*
X145300000Y-69475000D03*
X145300000Y-105820000D03*
X145600000Y-219700000D03*
X145750000Y-211350000D03*
X145900000Y-96175000D03*
X146057359Y-112688369D03*
X146068990Y-115600000D03*
X146300000Y-68975000D03*
X146700000Y-214100000D03*
X147100000Y-96175000D03*
X147850000Y-143200000D03*
X147850000Y-152899998D03*
X147970000Y-210750000D03*
X148000000Y-227600000D03*
X148050000Y-105185000D03*
X148050000Y-106130000D03*
X148300000Y-96175000D03*
X149100000Y-224615000D03*
X149500000Y-96175000D03*
D12*
%TO.C,U201*%
X81800000Y-131440000D03*
X82400000Y-131840000D03*
D13*
%TO.C,U2201*%
X72900000Y-197300000D03*
X72900000Y-198500000D03*
X72900000Y-199700000D03*
X74100000Y-197300000D03*
X74100000Y-198500000D03*
X74100000Y-199700000D03*
X75300000Y-197300000D03*
X75300000Y-198500000D03*
X75300000Y-199700000D03*
%TO.C,U401*%
X108040000Y-134645000D03*
X108040000Y-136245000D03*
X108840000Y-135445000D03*
X109640000Y-134645000D03*
X109640000Y-136245000D03*
%TO.C,U407*%
X124200000Y-176350000D03*
X124200000Y-177150000D03*
%TO.C,U402*%
X121025000Y-153075000D03*
%TO.C,U301*%
X105650000Y-172100000D03*
X105650000Y-173000000D03*
X105650000Y-173900000D03*
X106550000Y-172100000D03*
X106550000Y-173000000D03*
X106550000Y-173900000D03*
X107450000Y-172100000D03*
X107450000Y-173000000D03*
X107450000Y-173900000D03*
%TO.C,U404*%
X107000000Y-123500000D03*
%TO.C,U405*%
X126097000Y-158926000D03*
%TO.C,U1701*%
X118000000Y-207700000D03*
X118000000Y-208700000D03*
X118000000Y-209700000D03*
X118000000Y-210700000D03*
X119000000Y-207700000D03*
X119000000Y-208700000D03*
X119000000Y-209700000D03*
X119000000Y-210700000D03*
X120000000Y-207700000D03*
X120000000Y-208700000D03*
X120000000Y-209700000D03*
X120000000Y-210700000D03*
X121000000Y-207700000D03*
X121000000Y-208700000D03*
X121000000Y-209700000D03*
X121000000Y-210700000D03*
%TO.C,U202*%
X95750000Y-214685000D03*
X95750000Y-215585000D03*
%TO.C,U1601*%
X134100000Y-208700000D03*
X134100000Y-209700000D03*
X134600000Y-209200000D03*
X135100000Y-208700000D03*
X135100000Y-209700000D03*
D14*
%TO.C,J2401*%
X63775000Y-185700000D03*
X65025000Y-185700000D03*
D15*
%TO.C,J201*%
X86310000Y-236400000D02*
X86310000Y-235800000D01*
X86670000Y-230450000D02*
X86670000Y-229850000D01*
X94930000Y-230450000D02*
X94930000Y-229850000D01*
X95290000Y-236400000D02*
X95290000Y-235800000D01*
D16*
%TO.C,J1901*%
X97575000Y-232500000D02*
X97575000Y-231750000D01*
X97575000Y-237000000D02*
X97575000Y-236250000D01*
X108425000Y-232500000D02*
X108425000Y-231750000D01*
X108425000Y-237000000D02*
X108425000Y-236250000D01*
D17*
%TO.C,JP404*%
X90525000Y-135300000D03*
X92525000Y-135300000D03*
%TO.C,JP402*%
X131075735Y-134924265D03*
X132489949Y-133510051D03*
%TO.C,JP403*%
X122920000Y-165660000D03*
X122920000Y-167660000D03*
%TO.C,JP401*%
X111620000Y-121200000D03*
X113620000Y-121200000D03*
%TO.C,JP1801*%
X117600000Y-121400000D03*
X117600000Y-123400000D03*
D18*
%TO.C,MK1601*%
X105100000Y-224591000D03*
X107000000Y-224591000D03*
D19*
%TO.C,J1701*%
X113085000Y-218810000D03*
X114355000Y-221350000D03*
X115625000Y-218810000D03*
X116895000Y-221350000D03*
X118165000Y-218810000D03*
X119435000Y-221350000D03*
X120705000Y-218810000D03*
X121975000Y-221350000D03*
X123245000Y-218810000D03*
X124515000Y-221350000D03*
D20*
%TO.C,JP301*%
X104005500Y-159750000D03*
X106545500Y-159750000D03*
%TO.C,J701*%
X62200000Y-123500000D03*
X62200000Y-126040000D03*
X62200000Y-128580000D03*
X62200000Y-131120000D03*
X62200000Y-133660000D03*
X62200000Y-136200000D03*
D21*
%TO.C,J1701*%
X112165000Y-231770000D03*
X114705000Y-231770000D03*
X122895000Y-231770000D03*
X125435000Y-231770000D03*
D22*
%TO.C,J1601*%
X129500000Y-236675000D03*
X132700000Y-228575000D03*
X135900000Y-228575000D03*
X137900000Y-231675000D03*
X138800000Y-236675000D03*
D23*
%TO.C,J1701*%
X111005000Y-224650000D03*
X126590000Y-224650000D03*
D24*
%TO.C,BT301*%
X69300000Y-190500000D03*
X140700000Y-190500000D03*
D25*
%TO.C,MNT103*%
X144600000Y-233100000D03*
%TO.C,MNT101*%
X65400000Y-233100000D03*
%TO.C,MNT102*%
X147000000Y-66750000D03*
D26*
%TO.C,MOD1501*%
X80350000Y-62300000D03*
D27*
%TO.C,MOD101*%
X68200000Y-123500000D03*
X68200000Y-175300000D03*
X141800000Y-121700000D03*
X141800000Y-175300000D03*
D28*
%TO.C,MOD1801*%
X127000000Y-83865000D03*
M02*
